<?xml version="1.0" standalone="no"?>
<!DOCTYPE svg PUBLIC "-//W3C//DTD SVG 20010904//EN"
 "http://www.w3.org/TR/2001/REC-SVG-20010904/DTD/svg10.dtd">
<svg version="1.0" xmlns="http://www.w3.org/2000/svg"
 width="512.000000pt" height="512.000000pt" viewBox="0 0 512.000000 512.000000"
 preserveAspectRatio="xMidYMid meet">

<g transform="translate(0.000000,512.000000) scale(0.100000,-0.100000)"
fill="#000000" stroke="none">
<path d="M2610 4835 c-8 -2 -80 -16 -160 -30 -641 -113 -1316 -366 -1937 -724
-301 -173 -476 -291 -496 -333 -34 -73 -16 -133 66 -217 110 -113 494 -311
833 -431 l91 -32 -9 -46 c-32 -181 -61 -807 -44 -945 9 -73 48 -122 109 -137
23 -6 85 -30 137 -54 105 -48 247 -103 369 -141 l79 -25 6 -58 c3 -31 13 -160
21 -287 8 -126 17 -248 19 -271 5 -40 5 -41 -59 -82 -169 -112 -253 -295 -225
-493 13 -91 31 -124 86 -159 168 -106 366 -123 527 -46 253 121 340 386 204
619 -33 56 -95 108 -170 142 -56 26 -56 26 -61 78 -9 77 -36 480 -33 483 2 2
43 -3 92 -11 465 -74 988 -30 1456 121 305 98 645 263 708 343 59 74 61 87 62
368 1 142 4 358 8 481 l6 223 185 80 c102 44 273 123 380 177 l195 97 29 60
c38 78 42 121 17 162 -24 38 -213 194 -366 301 -456 321 -1052 571 -1780 747
-138 33 -300 52 -345 40z m263 -334 c729 -176 1287 -411 1726 -729 52 -38 96
-73 98 -79 6 -16 -349 -178 -622 -283 -437 -168 -827 -272 -1265 -337 -73 -11
-661 43 -819 76 l-34 7 194 175 c107 96 264 235 349 309 85 73 162 143 172
155 40 52 31 119 -25 173 -58 56 -127 67 -186 31 -44 -27 -404 -340 -671 -582
-112 -103 -211 -187 -220 -187 -33 0 -333 83 -485 135 -223 75 -459 178 -633
277 l-43 25 143 85 c539 322 1118 560 1693 698 126 30 412 87 448 89 9 1 91
-17 180 -38z m1111 -1613 c-3 -90 -9 -262 -13 -383 l-6 -220 -110 -57 c-219
-114 -517 -219 -760 -267 -346 -69 -762 -75 -1078 -16 -38 7 -71 16 -74 19 -6
5 -74 888 -69 893 1 1 78 -9 172 -22 93 -14 291 -36 439 -50 l270 -26 165 26
c302 48 642 131 925 224 66 22 126 40 133 40 10 1 11 -33 6 -161z m-2535 57
c57 -13 106 -27 109 -30 12 -11 68 -865 57 -865 -14 0 -195 70 -284 110 l-74
34 6 275 c5 248 17 424 32 489 4 17 11 21 28 17 12 -3 69 -16 126 -30z m490
-2139 c54 -29 66 -99 25 -153 -48 -64 -128 -87 -216 -62 -33 9 -38 14 -38 40
0 56 35 102 121 159 51 33 69 36 108 16z"/>
</g>
</svg>
